<?xml version="1.0" standalone="no"?>
<!DOCTYPE svg PUBLIC "-//W3C//DTD SVG 20010904//EN"
 "http://www.w3.org/TR/2001/REC-SVG-20010904/DTD/svg10.dtd">
<svg version="1.0" xmlns="http://www.w3.org/2000/svg"
 width="256.000000pt" height="256.000000pt" viewBox="0 0 256.000000 256.000000"
 preserveAspectRatio="xMidYMid meet">

<g transform="translate(0.000000,256.000000) scale(0.100000,-0.100000)"
fill="#000000" stroke="none">
<path d="M1100 2545 c-566 -79 -1008 -525 -1085 -1095 -18 -132 -18 -208 0
-340 58 -435 329 -803 728 -990 292 -137 652 -155 957 -48 455 160 783 560
845 1031 19 145 19 212 0 347 -95 705 -739 1193 -1445 1095z m478 -746 c382
-222 354 -201 350 -252 -3 -37 -6 -42 -30 -45 -21 -3 -27 -9 -30 -30 -3 -23
-8 -27 -40 -30 l-38 -3 0 -315 0 -314 39 0 c40 0 56 -16 45 -45 -4 -10 0 -15
12 -15 54 0 73 -82 29 -125 l-24 -25 -611 0 -611 0 -24 25 c-18 17 -25 35 -25
64 0 42 18 61 57 61 14 0 19 7 18 28 0 24 4 27 38 30 l37 3 0 315 0 314 -35 0
c-33 0 -64 28 -48 44 3 3 -2 6 -12 6 -48 0 -74 74 -37 105 46 40 610 363 635
364 18 1 116 -50 305 -160z"/>
<path d="M947 1490 c8 -29 -14 -50 -53 -50 l-34 0 0 -314 0 -315 43 -3 c39 -3
42 -5 42 -30 l-1 -28 114 0 c101 0 113 2 102 15 -19 22 5 45 46 45 l34 0 0
315 0 315 -34 0 c-39 0 -61 21 -53 50 5 19 0 20 -103 20 -103 0 -108 -1 -103
-20z"/>
<path d="M1405 1499 c4 -5 4 -21 1 -35 -5 -20 -12 -24 -46 -24 l-40 0 0 -315
0 -315 39 0 c46 0 70 -22 51 -45 -11 -13 1 -15 102 -15 l114 0 -1 28 c0 24 4
27 38 30 l37 3 0 315 0 314 -34 0 c-39 0 -61 21 -53 50 5 19 0 20 -105 20 -74
0 -107 -3 -103 -11z"/>
</g>
</svg>
